<?xml version="1.0" encoding="utf-8"?>
<!-- Generator: Adobe Illustrator 22.0.0, SVG Export Plug-In . SVG Version: 6.00 Build 0)  -->
<svg version="1.1" id="Layer_1" xmlns="http://www.w3.org/2000/svg" xmlns:xlink="http://www.w3.org/1999/xlink" x="0px" y="0px"
	 viewBox="0 0 100 100" style="enable-background:new 0 0 100 100;" xml:space="preserve">
<path d="M26.8,62.7c1.6,4,3.9,7.2,7,9.8c9.2,7.7,19.7,10.2,31.3,7c1.9-0.5,3.9-1,5.9-1.1c3.5-0.1,6,2,6.9,5.4
	c0.9,3.3-0.4,6.7-3.6,8.2c-3.2,1.4-6.5,2.5-9.9,3.1c-20.5,3.7-41.4-6.2-50.8-25C-0.5,42.3,15,9.2,46.6,3.6
	C62.5,0.8,76.5,4.9,88.4,16c2.9,2.7,4.3,5.9,2.8,9.8c-0.9,2.4-2.9,3.9-5.1,5.1C69.5,39.8,53,48.6,36.4,57.5
	C33.2,59.2,30.1,60.9,26.8,62.7z M27,53.1c17.4-9.4,34.6-18.6,52.2-28c-1.6-1.2-2.8-2.2-4.2-3c-14.2-8.8-38.8-5.5-47.2,17.2
	C26.2,43.6,25.6,48.1,27,53.1z"/>
</svg>
