<?xml version="1.0" encoding="utf-8"?>
<!-- Generator: Adobe Illustrator 22.0.0, SVG Export Plug-In . SVG Version: 6.00 Build 0)  -->
<svg version="1.1" id="Capa_1" xmlns="http://www.w3.org/2000/svg" xmlns:xlink="http://www.w3.org/1999/xlink" x="0px" y="0px"
	 viewBox="0 0 260 90" style="enable-background:new 0 0 260 90;" xml:space="preserve">
<style type="text/css">
	.st0{fill:#FFFFFF;}
</style>
<g>
	<g>
		<path class="st0" d="M17.3,40.6c1,2.4,2.4,4.4,4.3,6c5.6,4.7,12,6.2,19.1,4.3c1.2-0.3,2.4-0.6,3.6-0.7c2.2-0.1,3.6,1.2,4.2,3.3
			c0.5,2-0.2,4.1-2.2,5c-1.9,0.9-4,1.5-6,1.9c-12.5,2.3-25.2-3.8-31-15.2C0.7,28.2,10.1,8,29.4,4.6c9.7-1.7,18.2,0.8,25.5,7.6
			c1.7,1.6,2.6,3.6,1.7,6c-0.6,1.5-1.8,2.4-3.1,3.1C43.4,26.6,33.3,32,23.2,37.4C21.2,38.5,19.3,39.5,17.3,40.6z M15.5,34.7
			C26.1,29,36.6,23.4,47.3,17.7c-1-0.7-1.7-1.3-2.5-1.9c-8.6-5.3-23.6-3.3-28.7,10.5C15,29,14.6,31.7,15.5,34.7z"/>
		<path class="st0" d="M211.9,73c0.3-3,0.6-5.8,0.9-8.9c8.6,0,17.3,0,26.3,0c-0.6-0.8-0.9-1.3-1.3-1.8c-9.5-11.5-18.9-23-28.4-34.6
			c-0.6-0.7-1.1-1.4-1.5-2.3c-1.3-2.7,0.3-5.7,3.3-6.2c0.7-0.1,1.4-0.2,2.1-0.2c11.7,0,23.3,0,35,0c2.7,0,4.4,1.2,4.9,3.4
			c0.7,2.9-1.2,5.5-4.2,5.6c-2.3,0.1-4.6,0-6.9,0c-6.3,0-12.7,0-19,0c-0.4,0-0.8,0-1.5,0c1.4,1.8,2.7,3.3,3.9,4.8
			c8.6,10.4,17.1,20.9,25.6,31.3c0.6,0.7,1.1,1.4,1.6,2.2c1.6,3.2-0.2,6.4-3.9,6.4c-7.6,0-15.3,0-22.9,0c-4.3,0-8.6,0-12.9,0
			C212.6,73,212.2,73,211.9,73z"/>
		<path class="st0" d="M85.4,48.1c0-1.6,0-3.1,0-4.6c0-1.9,0.8-2.9,2.6-3.3c1.1-0.2,2.2-0.3,3.3-0.1c2.2,0.3,3.1,1.5,3.1,3.7
			c0,1.3,0,2.6,0,4.1c2.3-0.5,4-1.6,5.5-3.1c2.5-2.7,3.4-6,3.4-9.6c0-9.3,0-18.7,0-28c0-2.4,1-3.9,2.9-4.5c2.3-0.7,4.6,0.7,4.9,3.1
			c0.1,0.5,0.1,1,0.1,1.5c0,9.3,0,18.6,0,27.9c0,6-1.7,11.4-6.2,15.6c-2.7,2.6-5.9,4.2-9.5,5c-0.9,0.2-1.2,0.6-1.2,1.5
			c0,4.7,0,9.5,0,14.2c0,2.4-1,3.6-3.4,3.8c-0.7,0.1-1.5,0.1-2.2,0c-2.1-0.2-3.2-1.5-3.2-3.6c0-4.6,0-9.3,0-13.9
			c0-1.1-0.3-1.5-1.4-1.7c-9.5-2.1-16.2-10.5-16.3-20.3c0-9.4,0-18.7,0-28.1c0-0.7,0.1-1.4,0.2-2.1c0.4-2,1.8-3.1,3.9-3.1
			c1.9,0,3.4,1.3,3.7,3.3c0.1,0.6,0.1,1.3,0.1,1.9c0,5.7,0,11.4,0,17.1c0,3.9,0.1,7.8,0.2,11.7C75.9,42.2,80.2,47.4,85.4,48.1z"/>
		<path class="st0" d="M164,62.5c0.2,3.1,0.3,6,0.5,9.1c-0.3,0-0.8,0-1.2,0c-10.2,0-20.5,0-30.7,0c-0.2,0-0.3,0-0.5,0
			c-2,0-3.7-0.7-4.7-2.6c-1-2-0.2-3.7,1-5.2c2.6-3.2,5.2-6.4,7.8-9.5c7.1-8.6,14.2-17.3,21.3-25.9c0.4-0.5,0.7-0.9,1.2-1.7
			c-0.6,0-1,0-1.4,0c-8.3,0-16.5,0-24.8,0c-0.7,0-1.4,0-2.1-0.2c-2.3-0.6-3.3-2.2-3.2-4.8c0.1-2,1.5-3.5,3.7-3.8
			c0.6-0.1,1.3-0.1,1.9-0.1c11.7,0,23.4,0,35.1,0c2,0,3.6,0.6,4.6,2.5c0.9,1.9,0.5,3.7-0.8,5.3c-7.2,8.8-14.4,17.6-21.6,26.4
			c-2.9,3.5-5.7,7-8.7,10.6C148.9,62.5,156.5,62.5,164,62.5z"/>
		<path class="st0" d="M166.6,52.8c0-4.8,0-9.6,0-14.4c0-0.8,0.1-1.6,0.3-2.3c0.5-1.8,1.9-2.8,3.8-2.7c1.8,0.1,3.2,1.2,3.6,3
			c0.2,0.7,0.2,1.5,0.2,2.2c0,9.3,0,18.7,0.1,28c0.1,8.7,6.7,13.4,14.5,12.9c1.2-0.1,2.4-0.3,3.6-0.5c5.4-1.3,8.8-5.3,9.2-10.9
			c0.1-1.3,0.2-2.7,0.2-4c0-8.6,0-17.2,0-25.9c0-2.6,0.9-4,2.9-4.6c2.1-0.6,4.1,0.5,4.7,2.6c0.2,0.6,0.2,1.3,0.2,2
			c0,9.3,0.1,18.7,0,28c-0.1,7.6-2.7,13.9-9.4,18c-6.8,4.2-18.2,5.1-25.6-0.8c-5.4-4.3-8.3-9.8-8.3-16.8
			C166.7,62,166.7,57.4,166.6,52.8C166.7,52.8,166.7,52.8,166.6,52.8z"/>
		<path class="st0" d="M60.7,67.9c4.4-3,8.6-5.8,12.8-8.6c1.3-0.9,2.5-1.6,4.1-1.4c2.1,0.2,3.7,1.6,4.2,3.6c0.5,2-0.2,3.7-1.9,4.9
			c-4.1,2.9-8.3,5.7-12.5,8.5c-2.5,1.7-5.1,3.4-7.7,5.1c-0.6,0.4-1.3,0.8-2,1c-3.4,1.3-6.3-0.7-6.3-4.3c0-5,0-10,0-15.1
			c0-10.5,0-21,0-31.5c0-3.6,2.3-5.5,5.8-4.8c1.9,0.4,3.2,1.9,3.4,4c0,0.5,0,0.9,0,1.4c0,11.9,0,23.8,0,35.7
			C60.7,66.8,60.7,67.2,60.7,67.9z"/>
		<path class="st0" d="M123.9,46.1c0,7.1,0,14.2,0,21.3c0,0.7,0,1.3-0.2,2c-0.4,2.3-1.9,3.5-4.2,3.5c-2.4,0-3.9-1.1-4.4-3.4
			c-0.1-0.6-0.2-1.3-0.2-2c0-14.3,0-28.6,0-42.9c0-0.7,0.1-1.4,0.2-2.1c0.4-2.1,2-3.4,4.2-3.4c2.2,0,3.8,1.2,4.3,3.3
			c0.2,0.7,0.2,1.5,0.2,2.2C123.9,31.8,123.9,39,123.9,46.1z"/>
		<path class="st0" d="M185.9,39c0,1.6-1.2,2.7-2.7,2.6c-1.5,0-2.7-1.3-2.7-2.7c0-1.5,1.4-2.9,2.9-2.9
			C184.8,36.1,185.9,37.3,185.9,39z"/>
		<path class="st0" d="M194.6,36c1.4,0,2.8,1.3,2.8,2.8c0,1.4-1.3,2.8-2.8,2.8c-1.5,0-2.7-1.2-2.7-2.7C191.9,37.3,193.1,36,194.6,36
			z"/>
	</g>
</g>
</svg>
