<?xml version="1.0" encoding="utf-8"?>
<!-- Generator: Adobe Illustrator 22.0.0, SVG Export Plug-In . SVG Version: 6.00 Build 0)  -->
<svg version="1.1" id="Capa_1" xmlns="http://www.w3.org/2000/svg" xmlns:xlink="http://www.w3.org/1999/xlink" x="0px" y="0px"
	 viewBox="0 0 260 90" style="enable-background:new 0 0 260 90;" xml:space="preserve">
<style type="text/css">
	.st0{fill:none;}
	.st1{fill:#01060C;}
</style>
<g>
	<rect x="107.3" y="9.8" class="st0" width="88.3" height="112.7"/>
	<path class="st1" d="M190.4,83.8c-4.4,2.5-8.8,3.8-13.3,3.8c-4.5,0-8.8-0.9-12.9-2.6c-4.1-1.7-8-4.7-11.9-8.9
		c-3.9-4.2-7.1-9.4-9.6-15.4l-2.3-5.6h-18.2l-3.4,7.9c-0.3,0.7-0.4,1.3-0.4,1.8c0,0.5,0.1,0.9,0.3,1.5c0.2,0.5,0.6,1,1.3,1.4
		c0.7,0.4,1.3,0.6,2.1,0.6h0.8v0.8h-19v-0.8h0.8c1.3,0,2.6-0.4,3.9-1.1c1.3-0.8,2.3-1.9,3.2-3.4L129,25.7c-1.7-4.7-3.1-7.9-4.2-9.5
		c-1.1-1.6-2-2.8-2.8-3.7c-1.4-1.6-3.1-2.7-5.1-3.5c-0.8-0.3-1.7-0.4-2.8-0.4c-1.1,0-2.3,0.3-3.7,0.8l-0.2-0.9c4.5-2.7,8.9-4,13-4
		c6.1,0,11.6,3,16.6,9c2.5,3.1,4.7,6.9,6.7,11.3l13.6,31.2c2.5,5.7,4.3,9.6,5.5,11.5c1.2,2,2.3,3.6,3.2,5c0.9,1.4,1.9,2.6,2.8,3.6
		c0.9,1,1.9,2,3,3c1.9,1.7,4.2,3,7.1,3.8c1.2,0.4,2.5,0.6,4,0.6s3-0.2,4.5-0.7L190.4,83.8z M124.1,50.9h14.6l-5.4-13.2
		c-0.5-1-1-2.5-1.6-4.3L124.1,50.9z"/>
</g>
<g>
	<rect x="164" y="1.8" class="st0" width="88.3" height="112.7"/>
	<path class="st1" d="M190.5,34v21c0,1.5,0.5,2.7,1.6,3.8c1.1,1,2.4,1.6,3.8,1.6h1.1v0.8h-30.5v-0.8h1.1c1.5,0,2.7-0.5,3.8-1.6
		c1-1,1.6-2.3,1.7-3.8V8c-0.1-1.5-0.6-2.8-1.7-3.8c-1-1-2.3-1.5-3.8-1.5h-1.1V1.8h37.7c1.8,0,3.7-0.2,5.7-0.5c2.1-0.3,3.5-0.7,4.4-1
		v17.5h-0.8V17c0-3.3-0.9-6-2.8-7.9c-1.9-1.9-4.5-2.9-7.8-3.1h-12.3v23.7h22.9c2.7-0.1,4.9-0.9,6.6-2.7c1.7-1.7,2.5-4,2.5-6.7v-0.3
		h0.9v23.6h-0.9v-0.4c0-2.7-0.8-4.9-2.5-6.6c-1.7-1.7-3.9-2.6-6.5-2.7H190.5z"/>
</g>
<g>
	
		<rect x="9.3" y="33.1" transform="matrix(6.014300e-03 -1 1 6.014300e-03 -12.0743 142.3821)" class="st0" width="112.7" height="88.3"/>
	<path class="st1" d="M37.2,77.4l0.1-0.7c1.4,0.3,2.8,0.5,4.2,0.5s2.9-0.2,4.3-0.6c4.9-1.6,8.5-5.1,10.8-10.5c1-2.5,1.5-5,1.5-7.5
		V48c0-1-0.2-1.7-0.8-2.2C56.8,45.3,56,45,55,45h-1v-0.6h21.8V45h-1c-1.1,0-1.9,0.3-2.5,0.8c-0.6,0.5-0.9,1.3-0.8,2.2v8.8
		c0,2.1,0.8,3.8,2.4,5c1.6,1.3,3.7,1.9,6.5,1.9c2.8,0,5.3-0.8,7.5-2.5c2.3-1.7,4-4,5.2-7.1c1.2-3,1.8-6.5,1.8-10.5
		c0-6.2-1.4-11.3-4.2-15.1c-2.8-3.8-6.4-5.7-10.7-5.7c-4.3,0-8,1-11.1,3c-3.1,2-5.1,5.1-6.1,9.1h-0.6l-0.6-12.5c1.3-0.5,3-1,5.1-1.4
		c4.6-1,9.4-1.5,14.3-1.5c8.5,0,15.3,2.2,20.5,6.5c5.2,4.3,7.8,10,7.8,17.1c0,7.1-2.5,12.8-7.6,17.2c-5.1,4.4-11.7,6.5-19.9,6.5
		c-4.2,0-8.1-0.6-11.9-1.8c-1.6,3.8-3.9,7-7.1,9.6c-3.2,2.6-6.9,4.2-11.2,4.9c-1,0.1-2.1,0.2-3.1,0.2C44.8,79.9,41.1,79.1,37.2,77.4
		z"/>
</g>
<g>
	
		<rect x="51.2" y="43.8" transform="matrix(1 -6.014300e-03 6.014300e-03 1 -0.6008 0.5751)" class="st0" width="88.3" height="112.7"/>
	<path class="st1" d="M80.8,88.4h0.8v0.7H58.3v-0.7h0.8c1.1,0,2.1-0.4,2.9-1.2c0.8-0.8,1.2-1.8,1.3-2.9V46.8L57.7,47
		c-3.6,0.1-5.6,1.5-5.9,4c0,0.1,0,0.3,0,0.4c0,1.2,0.4,2.2,1.2,2.9c0.8,0.7,1.9,1.1,3.1,1.1c0.3,0,0.5,0,0.8,0v0.4
		c-1,0.5-1.9,0.8-2.8,0.8c-0.9,0-1.9-0.3-2.8-0.8c-1.8-1.1-2.7-2.7-2.7-4.8c0-2,0.8-3.7,2.3-5c1.6-1.3,4-2,7.3-2.2
		c0.5,0,2-0.1,4.6-0.2c2.6-0.1,4.8-0.2,6.7-0.2c5.4-0.3,9.4-0.6,12.2-1.2l0.1,0.6c-2.4,0.4-4,1.4-4.6,3.1c-0.3,0.8-0.5,1.9-0.5,3.1
		v35.2c0,1.1,0.4,2.1,1.2,2.9C78.7,88,79.7,88.4,80.8,88.4z"/>
</g>
</svg>
